<svg width="334" height="427" viewBox="0 0 334 427" fill="none" xmlns="http://www.w3.org/2000/svg">
<g opacity="0.3">
<path d="M169.695 248.5C214.831 248.5 255.67 258.455 285.206 274.525C314.762 290.606 332.891 312.74 332.891 337.065C332.891 361.391 314.762 383.524 285.206 399.604C255.67 415.675 214.831 425.631 169.695 425.631C124.559 425.631 83.721 415.675 54.1846 399.604C24.629 383.524 6.50008 361.391 6.5 337.065C6.5 312.74 24.629 290.606 54.1846 274.525C83.721 258.455 124.559 248.5 169.695 248.5Z" stroke="#F5F5F5"/>
</g>
<g opacity="0.5">
<path d="M163.695 418.682C254.101 418.682 327.39 378.806 327.39 329.617C327.39 280.427 254.101 240.551 163.695 240.551C73.2888 240.551 0 280.427 0 329.617C0 378.806 73.2888 418.682 163.695 418.682Z" fill="#F0F0F0"/>
</g>
<path d="M135.83 333.18C135.408 333.745 134.977 334.253 134.575 334.693C130.81 338.851 124.996 340.153 119.546 339.483C114.095 338.812 109.334 336.533 104.507 334.272C103.673 333.879 102.706 333.314 102.725 332.356C102.725 331.073 104.497 330.737 105.436 329.866C102.227 327.95 98.1653 328.113 94.8989 326.369C93.4189 325.562 92.1573 324.406 91.2229 323.003C90.2884 321.6 89.7091 319.99 89.5347 318.313C89.4055 317.306 89.5272 316.283 89.8891 315.334C91.0865 312.461 94.6786 311.742 97.763 311.378C92.2072 306.033 87.4465 298.925 88.0787 291.262C88.299 288.647 89.3623 285.821 91.7283 284.662C94.0943 283.503 97.035 284.442 99.0179 286.166C101.001 287.891 102.246 290.285 103.558 292.555C103.759 292.891 103.989 293.255 104.363 293.341C104.767 293.372 105.168 293.257 105.493 293.015C108.06 291.636 111.394 292.316 113.674 294.136C115.877 296.081 117.409 298.673 118.051 301.541C118.674 299.97 120.925 299.529 122.371 300.372C123.074 300.846 123.668 301.464 124.112 302.186C124.557 302.908 124.842 303.717 124.948 304.558C125.274 306.215 125.236 307.93 125.542 309.587C126.605 315.334 131.538 319.501 136.558 322.461C140.792 324.961 138.34 329.913 135.83 333.18Z" fill="#E5989B"/>
<path opacity="0.3" d="M135.83 333.18C135.408 333.745 134.977 334.253 134.575 334.693C130.81 338.851 124.996 340.153 119.546 339.483C114.095 338.812 109.334 336.533 104.507 334.272C103.673 333.879 102.706 333.314 102.725 332.356C102.725 331.073 104.497 330.737 105.436 329.866C102.227 327.95 98.1653 328.113 94.8989 326.369C93.4189 325.562 92.1573 324.406 91.2229 323.003C90.2884 321.6 89.7091 319.99 89.5347 318.313C89.4055 317.306 89.5272 316.283 89.8891 315.334C91.0865 312.461 94.6786 311.742 97.763 311.378C92.2072 306.033 87.4465 298.925 88.0787 291.262C88.299 288.647 89.3623 285.821 91.7283 284.662C94.0943 283.503 97.035 284.442 99.0179 286.166C101.001 287.891 102.246 290.285 103.558 292.555C103.759 292.891 103.989 293.255 104.363 293.341C104.767 293.372 105.168 293.257 105.493 293.015C108.06 291.636 111.394 292.316 113.674 294.136C115.877 296.081 117.409 298.673 118.051 301.541C118.674 299.97 120.925 299.529 122.371 300.372C123.074 300.846 123.668 301.464 124.112 302.186C124.557 302.908 124.842 303.717 124.948 304.558C125.274 306.215 125.236 307.93 125.542 309.587C126.605 315.334 131.538 319.501 136.558 322.461C140.792 324.961 138.34 329.913 135.83 333.18Z" fill="black"/>
<path d="M95.0426 287.287C95.0426 287.287 96.0867 303.954 130.217 326.906" stroke="white" stroke-miterlimit="10" stroke-linecap="round"/>
<path d="M102.6 321.771C102.6 321.771 107.802 324.185 120.408 319.856" stroke="white" stroke-miterlimit="10" stroke-linecap="round"/>
<path d="M111.221 298.609C111.221 298.609 114.957 307.001 113.492 313.936" stroke="white" stroke-miterlimit="10" stroke-linecap="round"/>
<path d="M131.692 354.407C128.768 357.934 124.969 360.633 120.676 362.233C113.3 365.107 109.133 362.233 109.133 362.233C109.133 362.233 110.58 354.407 114.488 351.457C110.049 353.511 105.988 356.299 102.476 359.704C102.476 359.704 97.8206 360.786 94.42 354.072C94.42 354.072 96.2496 349.186 105.014 344.847C105.014 344.847 99.0658 344.656 91.3931 348.506C90.8279 348.88 86.23 340.24 84.5154 336.159C82.8007 332.078 84.5153 331.762 87.6381 330.153C90.7608 328.544 101.911 325.536 104.382 326.906C106.854 328.275 109.258 334.272 109.258 334.272C109.101 331.707 108.625 329.171 107.84 326.724C110.628 325.972 113.524 325.696 116.404 325.909C120.398 326.398 120.561 328.266 121.145 330.967C121.755 333.691 121.971 336.487 121.787 339.272C121.787 339.272 123.875 336.494 122.18 328.275C122.18 328.275 128.148 331.484 130.973 334.741C133.799 337.998 135.341 347.826 131.692 354.407Z" fill="#E5989B"/>
<path d="M131.788 354.828C131.707 354.842 131.625 354.834 131.548 354.808C131.471 354.781 131.402 354.735 131.347 354.675C119.795 343.937 96.2304 333.314 87.6668 333.506C87.5499 333.506 87.4378 333.459 87.3552 333.376C87.2726 333.294 87.2261 333.182 87.2261 333.065C87.2261 332.948 87.2726 332.836 87.3552 332.753C87.4378 332.671 87.5499 332.624 87.6668 332.624C96.3741 332.433 120.465 342.634 132.056 354.129C132.093 354.174 132.121 354.227 132.138 354.283C132.154 354.339 132.159 354.399 132.152 354.457C132.145 354.515 132.126 354.571 132.096 354.622C132.066 354.673 132.026 354.717 131.979 354.752C131.923 354.793 131.857 354.82 131.788 354.828Z" fill="white"/>
<path d="M236.103 339.291C240.327 331.628 246.707 323.199 261.113 314.769C275.52 306.34 278.854 298.686 274.754 292.805C270.654 286.923 253.46 288.906 241.975 304.932C230.882 320.411 229.704 338.908 229.704 338.908L236.103 339.291Z" fill="#E5989B"/>
<path opacity="0.3" d="M236.103 339.291C240.327 331.628 246.707 323.199 261.113 314.769C275.52 306.34 278.854 298.686 274.754 292.805C270.654 286.923 253.46 288.906 241.975 304.932C230.882 320.411 229.704 338.908 229.704 338.908L236.103 339.291Z" fill="black"/>
<path d="M270.108 295.104C270.108 295.104 256.832 296.713 245.864 310.152C236.361 321.791 232.108 339.052 232.108 339.052" stroke="white" stroke-width="0.864094" stroke-miterlimit="10" stroke-linecap="round"/>
<path d="M230.738 354.378C237.884 360.269 250.672 363.584 256.812 354.666C258.134 352.75 259.054 350.393 261.046 349.186C262.188 348.602 263.423 348.219 264.696 348.056C267.422 347.674 270.035 346.714 272.359 345.24C274.591 343.631 276.191 340.91 275.798 338.19C275.491 336.274 274.371 334.464 274.84 332.442C275.309 330.421 276.756 328.381 277.216 326.187C278.174 321.982 275.578 315.43 270.204 317.269C268.393 318.034 266.808 319.247 265.596 320.794C262.464 324.3 260.376 322.269 256.372 321.58C254.977 321.38 253.556 321.667 252.348 322.393C251.141 323.119 250.221 324.239 249.743 325.565C249.312 326.887 249.302 328.438 248.373 329.396C247.099 330.814 244.858 330.517 242.952 330.431C240.703 330.345 238.461 330.727 236.367 331.551C234.273 332.375 232.373 333.625 230.786 335.22C227.841 338.227 226.205 342.277 226.236 346.485C226.342 349.512 228.698 352.271 230.738 354.378Z" fill="#E5989B"/>
<path d="M228.439 351.754H228.497C259.744 350.585 273.518 324.348 274.562 320.421C274.593 320.294 274.571 320.16 274.503 320.048C274.435 319.937 274.325 319.857 274.198 319.827C274.071 319.796 273.937 319.818 273.826 319.886C273.714 319.954 273.635 320.064 273.604 320.191C272.646 324.022 259.092 349.665 228.42 350.844C228.293 350.844 228.171 350.894 228.082 350.984C227.992 351.074 227.941 351.195 227.941 351.322C227.941 351.45 227.992 351.571 228.082 351.661C228.171 351.751 228.293 351.801 228.42 351.801L228.439 351.754Z" fill="white"/>
<path d="M263.192 341.897C265.148 342.028 267.112 341.999 269.064 341.811C269.191 341.797 269.307 341.733 269.387 341.633C269.467 341.533 269.504 341.406 269.49 341.279C269.476 341.152 269.412 341.036 269.313 340.956C269.213 340.876 269.086 340.839 268.958 340.853C265.379 341.189 261.769 340.943 258.268 340.125C258.146 340.092 258.017 340.107 257.906 340.168C257.795 340.229 257.712 340.33 257.674 340.45C257.642 340.572 257.659 340.702 257.722 340.811C257.785 340.921 257.888 341.001 258.01 341.035C259.703 341.499 261.44 341.788 263.192 341.897Z" fill="white"/>
<path d="M253.738 344.11H253.824C253.948 344.088 254.06 344.02 254.135 343.918C254.21 343.816 254.243 343.689 254.226 343.564C253.554 339.283 253.616 334.92 254.408 330.661C254.437 330.537 254.416 330.408 254.349 330.3C254.283 330.193 254.177 330.116 254.054 330.086C253.993 330.072 253.931 330.07 253.869 330.08C253.808 330.09 253.75 330.112 253.697 330.145C253.645 330.178 253.599 330.221 253.563 330.272C253.527 330.323 253.502 330.38 253.488 330.44C252.648 334.817 252.58 339.307 253.287 343.707C253.301 343.817 253.354 343.919 253.437 343.993C253.52 344.067 253.627 344.108 253.738 344.11Z" fill="white"/>
<path d="M231.945 325.66C231.217 339.876 231.275 339.282 231.313 345.575C231.313 346.945 231.313 348.631 231.313 350.872C230.355 357.453 225.441 363.881 216.715 368.919C196.982 380.308 164.988 380.308 145.256 368.919C135.083 363.047 130.159 355.288 130.485 347.596V347.539C130.542 346.887 130.609 346.207 130.696 345.499C130.696 345.499 130.696 345.441 130.696 345.422C131.548 337.941 133.569 327.48 133.981 320.459C134.652 309.319 134.661 306.838 134.661 300.841C134.661 294.059 132.429 288.178 124.623 281.616C116.816 275.055 101.298 252.611 101.298 252.611L204.253 199.735L233.516 292.421C233.516 292.421 233.009 304.941 231.945 325.66Z" fill="#B16668"/>
<path d="M212.844 190.718C214.733 182.711 209.775 174.689 201.768 172.799C193.762 170.91 185.739 175.868 183.85 183.875C181.96 191.881 186.918 199.904 194.925 201.793C202.931 203.683 210.954 198.724 212.844 190.718Z" fill="#9A4A4D"/>
<path d="M116.5 272.047L174.816 238.386C176.79 257.276 187.786 266.826 187.786 266.826L188.687 230.388L177.01 223.683L109.229 262.822C111.499 265.773 114.028 269.049 116.5 272.047Z" fill="#9A4A4D"/>
<path d="M199.817 6.78615L109.009 59.2119C108.044 59.8416 107.242 60.6904 106.667 61.6893C106.093 62.6881 105.763 63.8086 105.704 64.9592V269.758C105.704 271.855 107.189 272.718 109.009 271.673L199.817 219.248C200.78 218.616 201.58 217.767 202.153 216.768C202.725 215.77 203.054 214.65 203.113 213.5V8.69236C203.113 6.58499 201.637 5.73246 199.817 6.78615ZM198.361 194.611C198.361 196.411 197.097 197.561 195.488 198.442L113.013 246.136C111.451 247.036 110.139 246.308 110.139 244.498V84.0693C110.199 83.0835 110.49 82.1257 110.99 81.2736C111.489 80.4214 112.182 79.699 113.013 79.1649L195.584 31.4999C197.145 30.542 198.457 31.3275 198.457 33.1283L198.361 194.611Z" fill="#37474F"/>
<path d="M108.597 271.836C107.611 272.253 106.546 272.45 105.476 272.416C104.406 272.381 103.356 272.115 102.399 271.635L98.6443 269.451C97.6773 268.824 96.8733 267.975 96.2987 266.976C95.7241 265.977 95.3954 264.855 95.3396 263.704V58.9245C95.3597 58.0741 95.5519 57.2367 95.9048 56.4627C96.0202 56.1903 96.1513 55.9248 96.2975 55.6676L106.691 61.6641C106.468 62.0543 106.276 62.461 106.116 62.8806C105.866 63.5325 105.729 64.2227 105.714 64.9209V269.719C105.704 271.664 106.968 272.535 108.597 271.836Z" fill="#263238"/>
<path d="M155.16 227.419C158.034 225.761 160.371 227.112 160.371 230.436C160.275 232.244 159.753 234.004 158.847 235.572C157.941 237.14 156.678 238.472 155.16 239.459C152.287 241.126 149.94 239.775 149.94 236.452C150.036 234.641 150.559 232.879 151.466 231.309C152.373 229.739 153.639 228.406 155.16 227.419Z" stroke="#E6E6E6" stroke-miterlimit="10"/>
<path d="M154.413 37.4101C155.63 36.7108 156.626 37.276 156.626 38.6937C156.582 39.4609 156.359 40.2072 155.975 40.8726C155.591 41.5381 155.056 42.1041 154.413 42.5253C153.187 43.2341 152.2 42.6594 152.2 41.2513C152.241 40.4821 152.463 39.7333 152.847 39.0659C153.232 38.3984 153.768 37.8311 154.413 37.4101Z" fill="black"/>
<path d="M145.869 50.8781L162.958 41.0118C163.973 40.4179 164.806 40.8394 164.806 41.9697C164.763 42.5906 164.573 43.1923 164.251 43.7252C163.93 44.2582 163.487 44.7071 162.958 45.035L145.869 54.8822C144.844 55.4665 144.02 55.0546 144.02 53.9243C144.068 53.3073 144.261 52.7103 144.582 52.1813C144.903 51.6522 145.344 51.2059 145.869 50.8781Z" fill="black"/>
<path d="M198.361 194.448C198.361 196.249 197.097 197.398 195.488 198.279L113.013 245.963C111.451 246.864 110.139 246.136 110.139 244.325V83.9064C110.198 82.9192 110.489 81.9597 110.989 81.106C111.488 80.2522 112.181 79.5281 113.013 78.9924L195.584 31.3371C197.145 30.3792 198.457 31.1646 198.457 32.9655L198.361 194.448Z" fill="white"/>
<path d="M203.055 8.15594C202.816 6.4413 201.446 5.81867 199.789 6.77657L108.999 59.2119C108.025 59.8197 107.224 60.6673 106.672 61.6736L96.2783 55.6772C96.8322 54.6714 97.6375 53.8265 98.6156 53.225L189.424 0.789714C190.447 0.270569 191.577 0 192.724 0C193.871 0 195.002 0.270569 196.024 0.789714L199.856 2.96414C200.726 3.55364 201.462 4.32132 202.013 5.21635C202.565 6.11138 202.92 7.11335 203.055 8.15594Z" fill="#455A64"/>
<path d="M114.718 85.9563V84.7877C114.711 84.6794 114.728 84.5708 114.767 84.4698C114.807 84.3688 114.869 84.2778 114.948 84.2034H115.005C115.13 84.1267 115.235 84.28 115.235 84.529V85.7073C115.243 85.8171 115.226 85.9273 115.187 86.0299C115.147 86.1326 115.085 86.2252 115.005 86.3012H114.948C114.823 86.3586 114.718 86.2149 114.718 85.9563Z" fill="#455A64"/>
<path d="M115.743 85.372V83.3317C115.736 83.2234 115.753 83.1148 115.792 83.0138C115.832 82.9128 115.894 82.8218 115.973 82.7474H116.03C116.155 82.6707 116.251 82.824 116.251 83.0731V85.1134C116.259 85.221 116.243 85.329 116.205 85.43C116.167 85.531 116.107 85.6223 116.03 85.6977H115.973C115.886 85.7456 115.743 85.6211 115.743 85.372Z" fill="#455A64"/>
<path d="M116.768 84.7877V81.914C116.76 81.8064 116.775 81.6983 116.813 81.5974C116.851 81.4964 116.911 81.405 116.988 81.3297H117.055C117.18 81.253 117.275 81.4063 117.275 81.6554V84.529C117.284 84.6381 117.268 84.7476 117.23 84.8502C117.192 84.9527 117.133 85.0458 117.055 85.123H116.988C116.844 85.1804 116.768 85.0367 116.768 84.7877Z" fill="#455A64"/>
<path d="M117.802 84.1842V79.1936C117.794 79.086 117.809 78.9779 117.848 78.877C117.886 78.776 117.945 78.6846 118.023 78.6093H118.09C118.214 78.5422 118.31 78.6859 118.31 78.9445V83.9256C118.318 84.0354 118.301 84.1456 118.261 84.2483C118.222 84.3509 118.16 84.4436 118.08 84.5195H118.023C117.888 84.5866 117.802 84.4429 117.802 84.1842Z" fill="#455A64"/>
<path d="M120.551 82.9294C120.551 82.9294 120.551 82.8623 120.551 82.7761V82.0481L119.412 82.7091C119.344 82.7091 119.316 82.7091 119.316 82.6133V82.3451C119.31 82.2973 119.31 82.2491 119.316 82.2014C119.316 82.2014 119.316 82.1152 119.316 82.0577L120.532 78.7338L120.59 78.6093C120.612 78.5768 120.641 78.5504 120.676 78.5326L120.829 78.4368C120.829 78.4368 120.915 78.4368 120.935 78.4368C120.95 78.49 120.95 78.5465 120.935 78.5997V81.1573L121.184 81.0136C121.184 81.0136 121.27 81.0136 121.289 81.0136C121.303 81.067 121.303 81.123 121.289 81.1764V81.3489C121.301 81.4089 121.301 81.4708 121.289 81.5309C121.268 81.5799 121.231 81.6203 121.184 81.6458L120.935 81.7895V82.5271C120.951 82.5866 120.951 82.6495 120.935 82.7091C120.926 82.7343 120.912 82.7574 120.893 82.7772C120.875 82.7969 120.854 82.8128 120.829 82.824L120.638 82.9294C120.638 82.9294 120.58 82.9581 120.551 82.9294ZM120.551 81.3776V79.5576L119.718 81.8565L120.551 81.3776Z" fill="#455A64"/>
<path d="M121.921 81.7033C121.644 81.2573 121.522 80.7315 121.576 80.209C121.556 79.5532 121.673 78.9005 121.921 78.2932C122.101 77.8148 122.439 77.4124 122.879 77.1533C123.019 77.0658 123.176 77.0072 123.339 76.9808C123.459 76.9504 123.586 76.9676 123.693 77.0287C123.698 77.0392 123.701 77.0507 123.701 77.0623C123.701 77.0739 123.698 77.0854 123.693 77.0958C123.697 77.1244 123.697 77.1534 123.693 77.182L123.588 77.5556C123.588 77.5556 123.588 77.6322 123.54 77.6418C123.492 77.6514 123.54 77.6418 123.492 77.6418C123.395 77.6106 123.291 77.6022 123.19 77.6171C123.089 77.632 122.992 77.67 122.908 77.728C122.61 77.913 122.384 78.1932 122.266 78.5231C122.09 78.9643 122.009 79.4374 122.027 79.912C121.985 80.3035 122.066 80.6981 122.257 81.0423C122.41 81.2243 122.611 81.2435 122.879 81.0423C122.979 80.9818 123.075 80.9146 123.167 80.8412C123.248 80.7655 123.322 80.6821 123.387 80.5921V79.4043L122.908 79.6725C122.86 79.6725 122.831 79.6725 122.812 79.6725C122.797 79.6193 122.797 79.563 122.812 79.5097V79.3469C122.8 79.2836 122.8 79.2185 122.812 79.1553C122.833 79.1116 122.866 79.075 122.908 79.0499L123.674 78.6093C123.725 78.6093 123.764 78.6093 123.789 78.6093C123.803 78.6724 123.803 78.7378 123.789 78.8009V80.4963C123.795 80.5473 123.795 80.5987 123.789 80.6496C123.782 80.6909 123.765 80.73 123.741 80.7645C123.525 81.1358 123.214 81.4431 122.841 81.6554C122.458 81.9811 122.142 81.9619 121.921 81.7033Z" fill="#455A64"/>
<path d="M194.894 35.6093C194.76 35.4177 194.597 35.3602 194.434 35.456L191.005 37.4388C190.82 37.6173 190.677 37.8343 190.586 38.0744C190.495 38.3145 190.458 38.5718 190.478 38.8278V41.395C190.463 41.6803 190.533 41.9636 190.679 42.2092C190.722 42.2831 190.785 42.343 190.861 42.3816C190.902 42.4042 190.948 42.4161 190.995 42.4161C191.042 42.4161 191.088 42.4042 191.129 42.3816L194.559 40.4083C194.743 40.2295 194.885 40.0124 194.976 39.7724C195.068 39.5324 195.105 39.2753 195.086 39.0194V36.4235C195.1 36.1394 195.034 35.8571 194.894 35.6093ZM190.804 41.8835C190.745 41.7645 190.719 41.6325 190.727 41.5003V38.9332C190.716 38.739 190.745 38.5447 190.815 38.363C190.884 38.1813 190.991 38.0165 191.129 37.8795L194.559 35.9349C194.581 35.9232 194.605 35.9171 194.631 35.9171C194.656 35.9171 194.68 35.9232 194.702 35.9349C194.724 35.9283 194.748 35.9283 194.769 35.9349C194.82 36.0527 194.843 36.1805 194.836 36.3085V38.8757C194.849 39.0699 194.82 39.2647 194.751 39.4465C194.681 39.6284 194.573 39.7931 194.434 39.9294L191.005 41.9122C190.915 41.9633 190.848 41.9537 190.804 41.8835Z" fill="#455A64"/>
<path d="M192.969 37.276V40.3125L191.12 41.3854H191.062V39.0002C191.054 38.8558 191.076 38.7113 191.128 38.576C191.179 38.4407 191.258 38.3176 191.359 38.2148L192.969 37.276Z" fill="#455A64"/>
<path d="M195.258 36.3373C195.382 36.2702 195.488 36.6342 195.488 37.1611V37.64C195.525 38.0251 195.445 38.4125 195.258 38.7512L195.028 38.9044V36.481L195.258 36.3373Z" fill="#455A64"/>
<path d="M128.473 77.546C128.478 77.8156 128.421 78.0828 128.307 78.3269C128.192 78.571 128.023 78.7856 127.812 78.9541C127.439 79.1648 127.142 78.8775 127.142 78.3123C127.137 78.0418 127.195 77.7739 127.312 77.5296C127.428 77.2853 127.599 77.0712 127.812 76.9042C128.176 76.6935 128.473 76.9808 128.473 77.546Z" fill="#455A64"/>
<path d="M127.812 75.2087C127.033 75.7692 126.482 76.5924 126.261 77.5268C126.203 77.728 126.261 77.9292 126.337 77.9962C126.462 78.0729 126.644 77.91 126.72 77.6514C126.878 76.9903 127.265 76.4066 127.812 76.0038C127.904 75.938 128.01 75.8953 128.122 75.8794C128.234 75.8635 128.347 75.8749 128.454 75.9125C128.56 75.9501 128.656 76.013 128.733 76.0956C128.809 76.1782 128.865 76.2782 128.895 76.387C128.971 76.569 129.163 76.5115 129.288 76.2912C129.335 76.2076 129.365 76.1154 129.377 76.0201C129.388 75.9247 129.381 75.828 129.355 75.7356C129.318 75.5764 129.242 75.4291 129.133 75.3078C129.023 75.1864 128.885 75.095 128.73 75.0422C128.576 74.9894 128.41 74.977 128.25 75.0062C128.089 75.0353 127.939 75.105 127.812 75.2087Z" fill="#455A64"/>
<path d="M127.812 73.5899C126.658 74.4131 125.82 75.6062 125.437 76.9713C125.36 77.1916 125.379 77.4119 125.494 77.4789C125.609 77.5556 125.791 77.4023 125.877 77.1533C126.18 76.0381 126.856 75.0608 127.793 74.3849C127.948 74.275 128.126 74.2008 128.313 74.1679C128.5 74.1349 128.693 74.144 128.876 74.1944C129.059 74.2448 129.229 74.3353 129.373 74.4594C129.517 74.5835 129.632 74.738 129.709 74.9118C129.795 75.065 129.968 75.0172 130.092 74.7968C130.142 74.7107 130.173 74.6148 130.183 74.5157C130.193 74.4166 130.181 74.3165 130.15 74.2221C130.053 74.0127 129.911 73.8272 129.734 73.6784C129.558 73.5297 129.351 73.4214 129.128 73.3611C128.906 73.3009 128.672 73.2901 128.445 73.3297C128.218 73.3692 128.002 73.458 127.812 73.5899Z" fill="#455A64"/>
<path d="M150.859 65.3136C150.868 65.3579 150.868 65.4034 150.859 65.4477C150.847 65.4884 150.82 65.5228 150.783 65.5435L150.61 65.6489C150.599 65.6556 150.585 65.6592 150.572 65.6592C150.559 65.6592 150.545 65.6556 150.534 65.6489C150.521 65.6149 150.521 65.5776 150.534 65.5435V62.0472L149.863 63.2158C149.863 63.2158 149.806 63.2925 149.777 63.3021C149.765 63.3088 149.752 63.3123 149.739 63.3123C149.725 63.3123 149.712 63.3088 149.7 63.3021L149.605 63.1584C149.59 63.1215 149.59 63.0803 149.605 63.0434C149.596 62.9959 149.596 62.9472 149.605 62.8997L150.486 61.3479C150.503 61.3186 150.526 61.2927 150.553 61.2713H150.62L150.792 61.1755C150.803 61.1661 150.817 61.1609 150.831 61.1609C150.845 61.1609 150.858 61.1661 150.869 61.1755C150.88 61.2098 150.88 61.2466 150.869 61.2809L150.859 65.3136Z" fill="#455A64"/>
<path d="M151.827 61.9227C151.839 61.9126 151.854 61.907 151.87 61.907C151.886 61.907 151.901 61.9126 151.913 61.9227C151.925 61.9567 151.925 61.994 151.913 62.0281V62.4495C151.922 62.497 151.922 62.5458 151.913 62.5932C151.913 62.5932 151.865 62.6699 151.827 62.689L151.549 62.8423C151.538 62.8517 151.525 62.8569 151.511 62.8569C151.497 62.8569 151.483 62.8517 151.472 62.8423C151.461 62.808 151.461 62.7712 151.472 62.7369V62.3154C151.463 62.268 151.463 62.2192 151.472 62.1717C151.487 62.1326 151.514 62.0991 151.549 62.076L151.827 61.9227ZM151.827 64.1546C151.839 64.1445 151.854 64.1389 151.87 64.1389C151.886 64.1389 151.901 64.1445 151.913 64.1546C151.925 64.1886 151.925 64.2259 151.913 64.26V64.6719C151.922 64.7193 151.922 64.7681 151.913 64.8155C151.895 64.8557 151.865 64.8892 151.827 64.9113L151.549 65.0742C151.538 65.0836 151.525 65.0888 151.511 65.0888C151.497 65.0888 151.483 65.0836 151.472 65.0742C151.46 65.0402 151.46 65.0028 151.472 64.9688V64.5473C151.463 64.4999 151.463 64.4511 151.472 64.4036C151.49 64.366 151.516 64.3332 151.549 64.3079L151.827 64.1546Z" fill="#455A64"/>
<path d="M153.858 63.714C153.847 63.7234 153.833 63.7286 153.819 63.7286C153.805 63.7286 153.791 63.7234 153.781 63.714C153.768 63.6799 153.768 63.6426 153.781 63.6086V62.7561L152.478 63.5032C152.478 63.5032 152.478 63.5032 152.402 63.5032C152.391 63.4722 152.391 63.4384 152.402 63.4074V63.1775C152.399 63.0909 152.419 63.0051 152.459 62.9285L153.762 59.5375C153.782 59.4837 153.807 59.4323 153.838 59.3843C153.857 59.3469 153.887 59.3166 153.925 59.298L154.087 59.2023C154.098 59.1928 154.112 59.1876 154.126 59.1876C154.14 59.1876 154.154 59.1928 154.164 59.2023C154.173 59.2186 154.177 59.2366 154.177 59.2549C154.177 59.2733 154.173 59.2913 154.164 59.3076V61.961L154.519 61.7598C154.529 61.7504 154.543 61.7452 154.557 61.7452C154.571 61.7452 154.585 61.7504 154.595 61.7598C154.606 61.7941 154.606 61.8309 154.595 61.8652V62.0951C154.604 62.1426 154.604 62.1913 154.595 62.2388C154.578 62.2764 154.551 62.3093 154.519 62.3346L154.164 62.5357V63.4074C154.177 63.4544 154.177 63.5041 154.164 63.5511C154.149 63.5902 154.122 63.6237 154.087 63.6469L153.858 63.714ZM153.752 62.1622V60.3709L152.852 62.6794L153.752 62.1622Z" fill="#455A64"/>
<path d="M155.294 61.8461L155.352 62.0089C155.377 62.061 155.417 62.1044 155.467 62.1334C155.529 62.1533 155.596 62.1533 155.658 62.1334C155.773 62.1096 155.883 62.0676 155.984 62.0089C156.069 61.951 156.149 61.8869 156.224 61.8173C156.303 61.7382 156.371 61.6478 156.425 61.5491C156.485 61.4476 156.53 61.3379 156.559 61.2234C156.598 61.0963 156.617 60.9638 156.616 60.8307C156.618 60.7234 156.602 60.6165 156.568 60.5146C156.568 60.438 156.492 60.3805 156.434 60.3613C156.369 60.3419 156.299 60.3419 156.233 60.3613C156.146 60.3858 156.062 60.4212 155.984 60.4667L155.639 60.6679C155.635 60.6738 155.629 60.6786 155.622 60.682C155.616 60.6853 155.608 60.687 155.601 60.687C155.594 60.687 155.586 60.6853 155.58 60.682C155.573 60.6786 155.567 60.6738 155.563 60.6679C155.555 60.653 155.551 60.6366 155.551 60.62C155.551 60.6033 155.555 60.5869 155.563 60.5721V60.3422C155.558 60.304 155.558 60.2654 155.563 60.2272V60.1123L156.31 58.4551L155.122 59.1352C155.11 59.1454 155.095 59.1509 155.079 59.1509C155.063 59.1509 155.048 59.1454 155.036 59.1352C155.025 59.101 155.025 59.0641 155.036 59.0299V58.8C155.027 58.7525 155.027 58.7037 155.036 58.6563C155.054 58.6161 155.084 58.5826 155.122 58.5605L156.741 57.6026C156.754 57.5959 156.769 57.5923 156.784 57.5923C156.799 57.5923 156.814 57.5959 156.827 57.6026C156.84 57.6366 156.84 57.6739 156.827 57.708V57.9666C156.832 58.0048 156.832 58.0434 156.827 58.0815C156.812 58.131 156.793 58.1791 156.77 58.2252L156.118 59.8824C156.233 59.8166 156.36 59.7773 156.492 59.7674C156.545 59.7615 156.598 59.7661 156.649 59.7809C156.7 59.7957 156.747 59.8204 156.789 59.8536C156.88 59.9357 156.947 60.042 156.98 60.1602C157.027 60.3221 157.049 60.4899 157.047 60.6583C157.048 60.8688 157.019 61.0784 156.961 61.2809C156.915 61.4759 156.841 61.6631 156.741 61.8365C156.655 62.0044 156.545 62.1592 156.415 62.2963C156.304 62.4263 156.171 62.5364 156.022 62.622C155.877 62.7149 155.714 62.7769 155.543 62.804C155.426 62.8208 155.307 62.7935 155.208 62.7273C155.118 62.673 155.05 62.5881 155.017 62.4879C154.974 62.3678 154.952 62.2416 154.95 62.1143C154.941 62.0765 154.941 62.0372 154.95 61.9993C154.961 61.9689 154.981 61.9423 155.007 61.9227L155.199 61.8078C155.209 61.7983 155.223 61.7931 155.237 61.7931C155.251 61.7931 155.265 61.7983 155.275 61.8078C155.284 61.8191 155.291 61.8321 155.294 61.8461Z" fill="#455A64"/>
<path d="M189.048 154.104V90.8381C188.996 89.9485 188.735 89.0835 188.284 88.3127C187.834 87.542 187.207 86.8873 186.454 86.4015L185.768 86.0169C184.966 85.6094 184.077 85.3969 183.175 85.3969C182.273 85.3969 181.384 85.6094 180.581 86.0169L125.221 117.754C124.467 118.238 123.839 118.892 123.388 119.663C122.937 120.434 122.677 121.3 122.628 122.19V185.486C122.672 186.377 122.93 187.245 123.382 188.017C123.833 188.789 124.464 189.442 125.221 189.923L125.907 190.337C126.71 190.744 127.599 190.957 128.501 190.957C129.403 190.957 130.291 190.744 131.094 190.337L186.454 158.6C187.215 158.109 187.847 157.444 188.298 156.663C188.749 155.881 189.006 155.004 189.048 154.104Z" fill="#E5989B"/>
<path d="M186.456 89.293L131.149 121.106C130.397 121.593 129.771 122.249 129.321 123.022C128.871 123.794 128.609 124.662 128.558 125.553V189.12C128.558 190.751 129.72 191.433 131.149 190.602L186.456 158.789C187.209 158.302 187.835 157.646 188.285 156.874C188.735 156.101 188.996 155.234 189.048 154.342V90.9237C189.048 89.1448 187.886 88.4925 186.456 89.293Z" fill="#E5989B"/>
<path opacity="0.7" d="M189.048 90.4114C188.87 89.1272 187.805 88.6494 186.532 89.396L131.569 121.44C130.815 121.921 130.186 122.576 129.733 123.351L123.814 119.976C124.231 119.185 124.855 118.523 125.619 118.065L180.583 85.9916C181.386 85.6002 182.266 85.3969 183.158 85.3969C184.049 85.3969 184.93 85.6002 185.733 85.9916L186.413 86.4097C187.111 86.8478 187.707 87.4317 188.161 88.1221C188.615 88.8124 188.918 89.5931 189.048 90.4114Z" fill="white"/>
<path opacity="0.2" d="M130.93 190.602C130.153 190.875 129.323 190.993 128.494 190.947C127.666 190.902 126.856 190.694 126.119 190.337L125.364 189.954C124.57 189.47 123.908 188.817 123.433 188.049C122.958 187.281 122.682 186.418 122.628 185.532V122.328C122.66 121.431 122.942 120.557 123.445 119.793L129.735 123.124C129.256 123.896 128.986 124.766 128.949 125.659V188.863C128.823 190.278 129.704 190.956 130.93 190.602Z" fill="black"/>
<path d="M158.802 130.409C156.087 132.459 153.867 135.153 152.322 138.272C150.777 141.392 149.95 144.851 149.907 148.369C149.907 155.254 153.914 158.427 158.802 155.433C161.517 153.383 163.736 150.69 165.281 147.57C166.826 144.45 167.653 140.992 167.696 137.473C167.81 130.589 163.831 127.416 158.802 130.409Z" fill="white"/>
<path d="M141.605 131.81L145.163 129.281V131.497L141.605 134.026V131.81Z" fill="white"/>
<path d="M178.051 114.273L170.144 118.842C168.664 119.702 167.45 118.842 167.45 116.765C167.45 114.689 166.235 113.799 164.725 114.718L152.881 121.66C152.049 122.247 151.368 123.024 150.894 123.926C150.42 124.829 150.167 125.831 150.156 126.851C150.139 127.866 149.887 128.864 149.419 129.764C148.952 130.665 148.281 131.445 147.462 132.042L139.555 136.61C138.732 137.204 138.06 137.983 137.592 138.885C137.124 139.787 136.873 140.786 136.861 141.802V171.941C136.861 173.958 138.075 174.907 139.555 174.017L178.051 151.65C178.874 151.056 179.546 150.277 180.014 149.376C180.482 148.474 180.733 147.475 180.745 146.459V116.172C180.745 114.273 179.531 113.235 178.051 114.273ZM158.596 158.058C152.259 161.736 147.077 157.82 147.077 149.336C147.077 140.852 152.259 130.945 158.596 127.266C164.933 123.588 170.144 127.504 170.144 135.988C170.144 144.472 165.081 154.379 158.596 158.058ZM170.44 126.436C169.611 126.91 168.96 126.436 168.96 125.308C168.945 124.73 169.072 124.157 169.331 123.64C169.589 123.123 169.97 122.677 170.44 122.342C171.24 121.867 171.921 122.342 171.921 123.469C171.949 124.031 171.846 124.592 171.619 125.107C171.393 125.622 171.05 126.077 170.618 126.436H170.44Z" fill="white"/>
<path d="M233.516 292.421C233.554 271.43 234.981 250.463 237.789 229.66C240.758 208.902 240.183 191.143 239.273 186.124C238.363 181.104 234.589 168.987 230.365 164.561C226.437 160.442 218.717 153.833 212.04 145.997C205.364 138.162 199.022 129.301 195.459 124.502C191.896 119.703 183.006 127.433 183.476 142.702C183.83 155.212 191.714 166.707 195.679 170.836C199.645 174.964 204.933 183.422 205.258 186.861C205.527 189.735 203.505 194.582 199.444 199.687C193.103 207.648 168.188 233.08 187.796 266.788V297.709L233.516 292.421Z" fill="#B16668"/>
<path d="M197.059 133.861C197.059 133.861 204.664 144.177 207.088 145.509C209.511 146.84 210.211 143.804 210.211 143.804C206.714 138.899 200.201 129.972 195.469 124.512C196.82 127.431 197.369 130.658 197.059 133.861Z" fill="#B16668"/>
<path opacity="0.6" d="M197.059 133.861C197.059 133.861 204.664 144.177 207.088 145.509C209.511 146.84 210.211 143.804 210.211 143.804C206.714 138.899 200.201 129.972 195.469 124.512C196.82 127.431 197.369 130.658 197.059 133.861Z" fill="white"/>
<path d="M210.211 143.804C209.867 143.254 209.49 142.726 209.08 142.223C209.199 142.885 209.13 143.567 208.881 144.192C208.632 144.816 208.214 145.359 207.672 145.758C209.665 146.333 210.211 143.804 210.211 143.804Z" fill="#9A4A4D"/>
<path d="M95.3204 86.5119C88.8067 79.8066 79.563 75.0938 73.2026 79.979C66.8421 84.8643 66.823 96.8668 70.827 102.825C76.9767 111.954 95.3204 127.251 95.3204 127.251V86.5119Z" fill="#B16668"/>
<path opacity="0.5" d="M95.3204 86.5119C94.5924 85.7552 93.8165 85.0272 93.031 84.3375V112.116C93.031 115.948 79.6205 105.22 74.3233 98.7059C71.2127 95.0827 69.414 90.5169 69.2177 85.7456C67.1965 91.3589 67.9916 98.6006 70.827 102.815C76.9767 111.944 95.3204 127.242 95.3204 127.242V86.5119Z" fill="#9A4A4D"/>
<path d="M77.8771 227.821C81.1053 233.348 95.3204 243.521 95.3204 243.521V211.795L77.8771 227.821Z" fill="#9A4A4D"/>
<path d="M76.9193 149.427C80.3198 155.251 95.3205 165.989 95.3205 165.989V132.52L76.9193 149.427Z" fill="#9A4A4D"/>
<path d="M76.2008 179.62C80.8466 187.838 95.3588 197.427 95.3588 197.427V166.104L76.2008 179.62Z" fill="#9A4A4D"/>
<path d="M83.8927 120.345C92.169 119.588 96.5082 123.219 98.357 130.642C99.0562 133.449 99.1329 137.893 98.357 143.411C97.5811 148.928 92.3605 155.538 85.6361 154.542H85.3104C74.4383 152.779 73.2026 146.936 73.2026 137.51C73.2026 128.085 76.5265 121.015 83.8927 120.345Z" fill="#B16668"/>
<path opacity="0.5" d="M93.6633 122.529C94.2572 123.056 97.7631 126.485 97.8014 135.997C97.8014 146.4 92.6192 148.555 86.8527 149.484C81.0861 150.413 73.3271 146.821 73.3271 141.62C73.8253 148.612 76.1338 153 85.3104 154.494H85.6361C92.3414 155.452 97.5811 148.881 98.357 143.363C99.1329 137.846 99.0563 133.401 98.357 130.594C97.447 127.002 95.9335 124.282 93.6633 122.529Z" fill="#9A4A4D"/>
<path d="M84.0747 153.498C91.6325 152.808 95.5695 156.122 97.2937 162.895C97.9355 165.462 98.0025 169.523 97.2937 174.562C96.5848 179.6 91.8145 185.635 85.6744 184.735L85.3679 184.687C75.444 183.077 74.3137 177.742 74.3137 169.131C74.3137 160.519 77.3502 154.111 84.0747 153.498Z" fill="#B16668"/>
<path opacity="0.5" d="M94.6116 157.08C95.6749 158.661 96.4508 162.55 95.8186 168.441C95.0043 176.162 93.3472 179.936 86.594 180.395C79.6013 180.903 75.3004 177.665 74.5628 174.255C75.2238 179.869 77.5898 183.422 85.3679 184.687L85.6744 184.735C91.8145 185.635 96.5849 179.6 97.2937 174.562C98.0026 169.523 97.9355 165.462 97.2937 162.895C96.8303 160.785 95.9153 158.802 94.6116 157.08Z" fill="#9A4A4D"/>
<path d="M84.4866 200.253C92.3222 199.534 98.1942 203.27 98.1942 210.014V222.121C98.1989 223.64 97.8776 225.141 97.2519 226.525C96.6261 227.908 95.7106 229.141 94.5672 230.14C93.4238 231.139 92.0792 231.881 90.6243 232.315C89.1694 232.75 87.6382 232.867 86.1342 232.658L85.8277 232.61C75.5207 230.934 75.6452 221.518 75.5207 216.575C75.3962 211.632 77.5036 200.894 84.4866 200.253Z" fill="#B16668"/>
<path opacity="0.5" d="M94.3817 202.408C97.8014 206 96.4699 213.299 96.2017 220.493C96.0197 225.484 93.4238 229.622 86.6227 229.622C79.8217 229.622 76.7372 225.455 75.8177 221.374C76.3828 226.087 78.3561 231.413 85.866 232.639L86.1725 232.687C87.6765 232.895 89.2077 232.779 90.6626 232.344C92.1175 231.91 93.4621 231.168 94.6055 230.169C95.7489 229.17 96.6644 227.937 97.2902 226.554C97.9159 225.17 98.2373 223.668 98.2325 222.15V210.014C98.274 208.526 97.9436 207.051 97.2712 205.723C96.5988 204.394 95.6056 203.255 94.3817 202.408Z" fill="#9A4A4D"/>
</svg>
